<mxfile host="app.diagrams.net" agent="Mozilla/5.0 (Windows NT 10.0; Win64; x64) AppleWebKit/537.36 (KHTML, like Gecko) Chrome/140.0.0.0 Safari/537.36 Edg/140.0.0.0" version="28.2.5">
  <diagram name="Page-1" id="oqHyE_u0CJP_gUcuzeu1">
    <mxGraphModel dx="760" dy="468" grid="1" gridSize="10" guides="1" tooltips="1" connect="1" arrows="1" fold="1" page="1" pageScale="1" pageWidth="827" pageHeight="1169" math="0" shadow="0">
      <root>
        <mxCell id="0" />
        <mxCell id="1" parent="0" />
        <mxCell id="x9TEYT7pMhFgVHoq3Fi_-32" value="" style="edgeStyle=orthogonalEdgeStyle;rounded=0;orthogonalLoop=1;jettySize=auto;html=1;entryX=0.5;entryY=0;entryDx=0;entryDy=0;" edge="1" parent="1" source="x9TEYT7pMhFgVHoq3Fi_-1" target="x9TEYT7pMhFgVHoq3Fi_-8">
          <mxGeometry relative="1" as="geometry">
            <Array as="points">
              <mxPoint x="345" y="550" />
              <mxPoint x="345" y="550" />
            </Array>
          </mxGeometry>
        </mxCell>
        <mxCell id="x9TEYT7pMhFgVHoq3Fi_-1" value="Crop plot" style="rounded=0;whiteSpace=wrap;html=1;" vertex="1" parent="1">
          <mxGeometry x="300" y="490" width="110" height="30" as="geometry" />
        </mxCell>
        <mxCell id="x9TEYT7pMhFgVHoq3Fi_-2" value="Location" style="ellipse;whiteSpace=wrap;html=1;" vertex="1" parent="1">
          <mxGeometry x="140" y="470" width="90" height="40" as="geometry" />
        </mxCell>
        <mxCell id="x9TEYT7pMhFgVHoq3Fi_-3" value="Unique name" style="ellipse;whiteSpace=wrap;html=1;" vertex="1" parent="1">
          <mxGeometry x="230" y="420" width="90" height="40" as="geometry" />
        </mxCell>
        <mxCell id="x9TEYT7pMhFgVHoq3Fi_-4" value="" style="endArrow=none;html=1;rounded=0;entryX=1;entryY=1;entryDx=0;entryDy=0;exitX=0;exitY=1;exitDx=0;exitDy=0;" edge="1" parent="1" source="x9TEYT7pMhFgVHoq3Fi_-3" target="x9TEYT7pMhFgVHoq3Fi_-3">
          <mxGeometry width="50" height="50" relative="1" as="geometry">
            <mxPoint x="380" y="570" as="sourcePoint" />
            <mxPoint x="430" y="520" as="targetPoint" />
          </mxGeometry>
        </mxCell>
        <mxCell id="x9TEYT7pMhFgVHoq3Fi_-5" value="Type of crop" style="ellipse;whiteSpace=wrap;html=1;" vertex="1" parent="1">
          <mxGeometry x="330" y="400" width="90" height="40" as="geometry" />
        </mxCell>
        <mxCell id="x9TEYT7pMhFgVHoq3Fi_-8" value="Sensors" style="rounded=0;whiteSpace=wrap;html=1;" vertex="1" parent="1">
          <mxGeometry x="290" y="640" width="110" height="30" as="geometry" />
        </mxCell>
        <mxCell id="x9TEYT7pMhFgVHoq3Fi_-9" value="Unique code" style="ellipse;whiteSpace=wrap;html=1;" vertex="1" parent="1">
          <mxGeometry x="180" y="630" width="90" height="40" as="geometry" />
        </mxCell>
        <mxCell id="x9TEYT7pMhFgVHoq3Fi_-10" value="" style="endArrow=none;html=1;rounded=0;entryX=1;entryY=1;entryDx=0;entryDy=0;exitX=0;exitY=1;exitDx=0;exitDy=0;" edge="1" source="x9TEYT7pMhFgVHoq3Fi_-9" target="x9TEYT7pMhFgVHoq3Fi_-9" parent="1">
          <mxGeometry width="50" height="50" relative="1" as="geometry">
            <mxPoint x="330" y="780" as="sourcePoint" />
            <mxPoint x="380" y="730" as="targetPoint" />
          </mxGeometry>
        </mxCell>
        <mxCell id="x9TEYT7pMhFgVHoq3Fi_-11" value="&lt;font style=&quot;font-size: 9px;&quot;&gt;Monitoring&lt;/font&gt;" style="rhombus;whiteSpace=wrap;html=1;" vertex="1" parent="1">
          <mxGeometry x="320" y="570" width="50" height="50" as="geometry" />
        </mxCell>
        <mxCell id="x9TEYT7pMhFgVHoq3Fi_-12" value="Record data" style="ellipse;whiteSpace=wrap;html=1;" vertex="1" parent="1">
          <mxGeometry x="210" y="690" width="90" height="40" as="geometry" />
        </mxCell>
        <mxCell id="x9TEYT7pMhFgVHoq3Fi_-14" value="Measurements&amp;nbsp;" style="ellipse;whiteSpace=wrap;html=1;" vertex="1" parent="1">
          <mxGeometry x="110" y="710" width="90" height="40" as="geometry" />
        </mxCell>
        <mxCell id="x9TEYT7pMhFgVHoq3Fi_-15" value="Time" style="ellipse;whiteSpace=wrap;html=1;" vertex="1" parent="1">
          <mxGeometry x="180" y="750" width="90" height="40" as="geometry" />
        </mxCell>
        <mxCell id="x9TEYT7pMhFgVHoq3Fi_-27" value="" style="edgeStyle=orthogonalEdgeStyle;rounded=0;orthogonalLoop=1;jettySize=auto;html=1;entryX=1;entryY=0.25;entryDx=0;entryDy=0;" edge="1" parent="1" source="x9TEYT7pMhFgVHoq3Fi_-18" target="x9TEYT7pMhFgVHoq3Fi_-1">
          <mxGeometry relative="1" as="geometry" />
        </mxCell>
        <mxCell id="x9TEYT7pMhFgVHoq3Fi_-18" value="&lt;font style=&quot;font-size: 9px;&quot;&gt;Belong to&lt;/font&gt;" style="rhombus;whiteSpace=wrap;html=1;" vertex="1" parent="1">
          <mxGeometry x="455" y="440" width="50" height="50" as="geometry" />
        </mxCell>
        <mxCell id="x9TEYT7pMhFgVHoq3Fi_-28" value="" style="edgeStyle=orthogonalEdgeStyle;rounded=0;orthogonalLoop=1;jettySize=auto;html=1;entryX=1;entryY=0.75;entryDx=0;entryDy=0;" edge="1" parent="1" source="x9TEYT7pMhFgVHoq3Fi_-19" target="x9TEYT7pMhFgVHoq3Fi_-1">
          <mxGeometry relative="1" as="geometry" />
        </mxCell>
        <mxCell id="x9TEYT7pMhFgVHoq3Fi_-19" value="&lt;font style=&quot;font-size: 9px;&quot;&gt;Working&lt;/font&gt;" style="rhombus;whiteSpace=wrap;html=1;" vertex="1" parent="1">
          <mxGeometry x="455" y="520" width="50" height="50" as="geometry" />
        </mxCell>
        <mxCell id="x9TEYT7pMhFgVHoq3Fi_-20" value="" style="rounded=0;whiteSpace=wrap;html=1;" vertex="1" parent="1">
          <mxGeometry x="545" y="445" width="120" height="40" as="geometry" />
        </mxCell>
        <mxCell id="x9TEYT7pMhFgVHoq3Fi_-21" value="Owners" style="rounded=0;whiteSpace=wrap;html=1;" vertex="1" parent="1">
          <mxGeometry x="550" y="450" width="110" height="30" as="geometry" />
        </mxCell>
        <mxCell id="x9TEYT7pMhFgVHoq3Fi_-22" value="" style="rounded=0;whiteSpace=wrap;html=1;" vertex="1" parent="1">
          <mxGeometry x="550" y="525" width="120" height="40" as="geometry" />
        </mxCell>
        <mxCell id="x9TEYT7pMhFgVHoq3Fi_-23" value="Workers" style="rounded=0;whiteSpace=wrap;html=1;" vertex="1" parent="1">
          <mxGeometry x="555" y="530" width="110" height="30" as="geometry" />
        </mxCell>
        <mxCell id="x9TEYT7pMhFgVHoq3Fi_-25" value="" style="endArrow=none;html=1;rounded=0;entryX=1;entryY=0.5;entryDx=0;entryDy=0;exitX=0;exitY=0.5;exitDx=0;exitDy=0;" edge="1" parent="1" source="x9TEYT7pMhFgVHoq3Fi_-20" target="x9TEYT7pMhFgVHoq3Fi_-18">
          <mxGeometry width="50" height="50" relative="1" as="geometry">
            <mxPoint x="490" y="520" as="sourcePoint" />
            <mxPoint x="540" y="470" as="targetPoint" />
          </mxGeometry>
        </mxCell>
        <mxCell id="x9TEYT7pMhFgVHoq3Fi_-26" value="" style="endArrow=none;html=1;rounded=0;entryX=1;entryY=0.5;entryDx=0;entryDy=0;exitX=0;exitY=0.5;exitDx=0;exitDy=0;" edge="1" parent="1" source="x9TEYT7pMhFgVHoq3Fi_-22" target="x9TEYT7pMhFgVHoq3Fi_-19">
          <mxGeometry width="50" height="50" relative="1" as="geometry">
            <mxPoint x="555" y="475" as="sourcePoint" />
            <mxPoint x="515" y="475" as="targetPoint" />
          </mxGeometry>
        </mxCell>
        <mxCell id="x9TEYT7pMhFgVHoq3Fi_-33" value="" style="endArrow=none;html=1;rounded=0;entryX=0.5;entryY=1;entryDx=0;entryDy=0;exitX=0.75;exitY=0;exitDx=0;exitDy=0;" edge="1" parent="1" source="x9TEYT7pMhFgVHoq3Fi_-1" target="x9TEYT7pMhFgVHoq3Fi_-5">
          <mxGeometry width="50" height="50" relative="1" as="geometry">
            <mxPoint x="555" y="475" as="sourcePoint" />
            <mxPoint x="515" y="475" as="targetPoint" />
          </mxGeometry>
        </mxCell>
        <mxCell id="x9TEYT7pMhFgVHoq3Fi_-34" value="" style="endArrow=none;html=1;rounded=0;entryX=1;entryY=1;entryDx=0;entryDy=0;exitX=0.5;exitY=0;exitDx=0;exitDy=0;" edge="1" parent="1" source="x9TEYT7pMhFgVHoq3Fi_-1" target="x9TEYT7pMhFgVHoq3Fi_-3">
          <mxGeometry width="50" height="50" relative="1" as="geometry">
            <mxPoint x="393" y="500" as="sourcePoint" />
            <mxPoint x="385" y="450" as="targetPoint" />
          </mxGeometry>
        </mxCell>
        <mxCell id="x9TEYT7pMhFgVHoq3Fi_-35" value="" style="endArrow=none;html=1;rounded=0;entryX=1;entryY=0.5;entryDx=0;entryDy=0;exitX=0;exitY=0.5;exitDx=0;exitDy=0;" edge="1" parent="1" source="x9TEYT7pMhFgVHoq3Fi_-1" target="x9TEYT7pMhFgVHoq3Fi_-2">
          <mxGeometry width="50" height="50" relative="1" as="geometry">
            <mxPoint x="365" y="500" as="sourcePoint" />
            <mxPoint x="317" y="464" as="targetPoint" />
          </mxGeometry>
        </mxCell>
        <mxCell id="x9TEYT7pMhFgVHoq3Fi_-36" value="" style="endArrow=none;html=1;rounded=0;exitX=0;exitY=0;exitDx=0;exitDy=0;" edge="1" parent="1" source="x9TEYT7pMhFgVHoq3Fi_-8" target="x9TEYT7pMhFgVHoq3Fi_-9">
          <mxGeometry width="50" height="50" relative="1" as="geometry">
            <mxPoint x="310" y="500" as="sourcePoint" />
            <mxPoint x="240" y="500" as="targetPoint" />
          </mxGeometry>
        </mxCell>
        <mxCell id="x9TEYT7pMhFgVHoq3Fi_-37" value="" style="endArrow=none;html=1;rounded=0;entryX=0.778;entryY=0;entryDx=0;entryDy=0;entryPerimeter=0;" edge="1" parent="1" target="x9TEYT7pMhFgVHoq3Fi_-12">
          <mxGeometry width="50" height="50" relative="1" as="geometry">
            <mxPoint x="290" y="670" as="sourcePoint" />
            <mxPoint x="277" y="653" as="targetPoint" />
          </mxGeometry>
        </mxCell>
        <mxCell id="x9TEYT7pMhFgVHoq3Fi_-38" value="" style="endArrow=none;html=1;rounded=0;entryX=1;entryY=0.5;entryDx=0;entryDy=0;exitX=0;exitY=0.5;exitDx=0;exitDy=0;" edge="1" parent="1" source="x9TEYT7pMhFgVHoq3Fi_-12" target="x9TEYT7pMhFgVHoq3Fi_-14">
          <mxGeometry width="50" height="50" relative="1" as="geometry">
            <mxPoint x="300" y="680" as="sourcePoint" />
            <mxPoint x="290" y="700" as="targetPoint" />
          </mxGeometry>
        </mxCell>
        <mxCell id="x9TEYT7pMhFgVHoq3Fi_-39" value="" style="endArrow=none;html=1;rounded=0;entryX=0.5;entryY=0;entryDx=0;entryDy=0;exitX=0.368;exitY=0.962;exitDx=0;exitDy=0;exitPerimeter=0;" edge="1" parent="1" source="x9TEYT7pMhFgVHoq3Fi_-12" target="x9TEYT7pMhFgVHoq3Fi_-15">
          <mxGeometry width="50" height="50" relative="1" as="geometry">
            <mxPoint x="220" y="720" as="sourcePoint" />
            <mxPoint x="210" y="740" as="targetPoint" />
          </mxGeometry>
        </mxCell>
      </root>
    </mxGraphModel>
  </diagram>
</mxfile>
